<svg width="0" height="0" class="hidden">
  <symbol fill="#000000" version="1.1" id="next" xmlns="http://www.w3.org/2000/svg" xmlns:xlink="http://www.w3.org/1999/xlink" xml:space="preserve" viewBox="0 0 512 512">
    <g>
      <g>
        <path d="M256,0C114.608,0,0,114.608,0,256s114.608,256,256,256s256-114.608,256-256S397.392,0,256,0z M256,496
			C123.664,496,16,388.336,16,256S123.664,16,256,16s240,107.664,240,240S388.336,496,256,496z"></path>
      </g>
    </g>
    <g>
      <g>
        <polygon points="368.992,247.856 368.992,247.648 368.784,247.648 271.264,150.128 259.952,161.44 346.16,247.648 121.52,247.648 
			121.52,263.648 347.904,263.648 259.952,351.6 271.264,362.912 377.664,256.528 		"></polygon>
      </g>
    </g>
  </symbol>
  <symbol fill="#000000" version="1.1" id="prev" xmlns="http://www.w3.org/2000/svg" xmlns:xlink="http://www.w3.org/1999/xlink" xml:space="preserve" viewBox="0 0 512 512">
    <g>
      <g>
        <path d="M256,0C114.608,0,0,114.608,0,256s114.608,256,256,256s256-114.608,256-256S397.392,0,256,0z M256,496
			C123.664,496,16,388.336,16,256S123.664,16,256,16s240,107.664,240,240S388.336,496,256,496z"></path>
      </g>
    </g>
    <g>
      <g>
        <polygon points="390.48,249.424 164.08,249.424 252.048,161.44 240.736,150.128 134.336,256.528 143.008,265.2 143.008,265.424 
			143.232,265.424 240.736,362.912 252.048,351.6 165.856,265.424 390.48,265.424 		"></polygon>
      </g>
    </g>
  </symbol>
</svg>