<svg id="visual" viewBox="0 0 900 600" width="900" height="600" xmlns="http://www.w3.org/2000/svg" xmlns:xlink="http://www.w3.org/1999/xlink" version="1.1"><rect x="0" y="0" width="900" height="600" fill="#FBF3E8"></rect><defs><linearGradient id="grad1_0" x1="33.3%" y1="100%" x2="100%" y2="0%"><stop offset="20%" stop-color="#fbf3e8" stop-opacity="1"></stop><stop offset="80%" stop-color="#fbf3e8" stop-opacity="1"></stop></linearGradient></defs><defs><linearGradient id="grad2_0" x1="0%" y1="100%" x2="66.7%" y2="0%"><stop offset="20%" stop-color="#fbf3e8" stop-opacity="1"></stop><stop offset="80%" stop-color="#fbf3e8" stop-opacity="1"></stop></linearGradient></defs><g transform="translate(900, 600)"><path d="M-277 0C-294.3 -66 -311.6 -132 -281 -162.2C-250.4 -192.5 -171.8 -187.1 -117 -202.6C-62.2 -218.2 -31.1 -254.6 0 -291L0 0Z" fill="#EDECFF"></path></g><g transform="translate(0, 0)"><path d="M247 0C234 35.8 221 71.5 210.4 121.5C199.9 171.5 191.7 235.7 157 271.9C122.3 308.1 61.2 316.3 0 324.5L0 0Z" fill="#EDECFF"></path></g></svg>